<svg width="24" height="24" viewBox="0 0 24 24" fill="none" xmlns="http://www.w3.org/2000/svg">
<path d="M12 24C14.3734 24 16.6934 23.2962 18.6668 21.9776C20.6402 20.6591 22.1783 18.7849 23.0865 16.5922C23.9948 14.3995 24.2324 11.9867 23.7694 9.65892C23.3064 7.33115 22.1635 5.19295 20.4853 3.51472C18.807 1.83649 16.6689 0.693604 14.3411 0.230582C12.0133 -0.232441 9.60051 0.00519943 7.4078 0.913451C5.21508 1.8217 3.34094 3.35977 2.02236 5.33316C0.703787 7.30655 0 9.62663 0 12C1.13158e-05 15.1826 1.2643 18.2348 3.51473 20.4853C5.76516 22.7357 8.8174 24 12 24ZM12.0001 4.07238C12.2565 4.07238 12.5073 4.14844 12.7205 4.29093C12.9338 4.43343 13.1 4.63596 13.1981 4.87292C13.2963 5.10988 13.322 5.37062 13.2719 5.62218C13.2219 5.87373 13.0984 6.1048 12.917 6.28616C12.7357 6.46752 12.5046 6.59103 12.2531 6.64106C12.0015 6.6911 11.7408 6.66542 11.5038 6.56727C11.2668 6.46912 11.0643 6.3029 10.9218 6.08965C10.7793 5.87639 10.7033 5.62567 10.7033 5.36918C10.7033 5.19888 10.7368 5.03025 10.802 4.87292C10.8671 4.71558 10.9627 4.57263 11.0831 4.45221C11.2035 4.33179 11.3465 4.23627 11.5038 4.1711C11.6611 4.10593 11.8298 4.07238 12.0001 4.07238ZM8.75768 10.0666C9.22291 9.45757 9.78984 8.93349 10.4335 8.51745C11.6715 7.75174 13.2971 8.10139 13.2971 9.52119V16.6292C13.2971 17.6933 13.9807 17.8359 14.8174 17.4602C14.8874 17.4276 14.9664 17.4193 15.0417 17.4366C15.117 17.4539 15.1844 17.4959 15.2332 17.5558C15.282 17.6158 15.3093 17.6903 15.311 17.7676C15.3126 17.8448 15.2884 17.9204 15.2422 17.9824C14.777 18.5914 14.2101 19.1155 13.5665 19.5315C12.3284 20.2972 10.7029 19.9476 10.7029 18.5278V11.4198C10.7029 10.3556 10.0193 10.2131 9.18255 10.5888C9.11249 10.6214 9.03355 10.6297 8.95823 10.6124C8.88292 10.595 8.81554 10.5531 8.76677 10.4931C8.71799 10.4332 8.69062 10.3587 8.68897 10.2814C8.68732 10.2042 8.7115 10.1286 8.75768 10.0666Z" fill="white"/>
</svg>
