<svg width="24" height="20" viewBox="0 0 24 20" fill="none" xmlns="http://www.w3.org/2000/svg">
<path d="M18.1766 14.8462L14.3197 12.8617C13.7651 12.5854 13.1097 12.7361 12.7316 13.2134L11.3199 15.022C9.93348 14.2935 8.89995 13.5902 7.68995 12.3593C6.40434 11.0782 5.69851 9.99803 4.99268 8.66668L6.78246 7.28509C7.26141 6.90829 7.41266 6.25517 7.13537 5.70254L5.14393 1.88432C4.79101 1.20608 3.93393 1.00513 3.30373 1.40704L0.858535 3.03983C0.278747 3.41663 -0.023751 4.06975 0.0014572 4.74798C0.0518736 5.45134 0.127498 6.33053 0.303955 6.93341C1.00978 9.67147 2.72394 12.4849 5.14393 14.8713C7.5387 17.2577 10.3872 18.9658 13.1097 19.6943C13.7147 19.845 14.597 19.9455 15.3028 19.9957C15.9834 20.046 16.6641 19.7194 17.0422 19.1165L18.6303 16.6548C19.0588 16.0268 18.832 15.1727 18.1766 14.8462Z" fill="white"/>
<path d="M22.9662 0H10.8159C10.2613 0 9.80756 0.452157 9.80756 1.00479V1.65791L16.8911 4.62205L23.9746 1.65791V1.00479C23.9746 0.452157 23.5208 0 22.9662 0Z" fill="white"/>
<path d="M16.8911 6.25483C16.6642 6.25483 16.4626 6.20459 16.2609 6.12923L9.80762 3.44141V9.24409C9.80762 9.79673 10.2614 10.2489 10.8159 10.2489H22.9915C23.5461 10.2489 23.9998 9.79673 23.9998 9.24409V3.44141L17.5213 6.12923C17.3197 6.20459 17.118 6.25483 16.8911 6.25483Z" fill="white"/>
</svg>
