<svg width="24" height="22" viewBox="0 0 24 22" fill="none" xmlns="http://www.w3.org/2000/svg">
<path d="M23.7042 9.51077L12.5661 0.203077C12.2491 -0.0676923 11.7779 -0.0676923 11.4609 0.203077L0.314237 9.51077C-0.551104 10.23 0.554134 11.5246 1.41947 10.8054L2.57612 9.83231V21.1538C2.57612 21.6192 2.96167 22 3.43289 22H8.57353V15.3238C8.57353 14.8077 8.95908 14.3846 9.43031 14.3846H14.5709C15.0422 14.3846 15.4277 14.8077 15.4277 15.3238V22H20.5684C21.0396 22 21.4251 21.6192 21.4251 21.1538V9.83231L22.5818 10.8054C23.4386 11.5246 24.5524 10.2385 23.687 9.51077H23.7042Z" fill="white"/>
</svg>
