<?xml version="1.0" encoding="utf-8"?>
<!-- Generator: Adobe Illustrator 27.7.0, SVG Export Plug-In . SVG Version: 6.00 Build 0)  -->
<svg version="1.1" id="Layer_1" xmlns="http://www.w3.org/2000/svg" xmlns:xlink="http://www.w3.org/1999/xlink" x="0px" y="0px"
	 viewBox="0 0 400 400" style="enable-background:new 0 0 400 400;" xml:space="preserve">
<style type="text/css">
	.st0{fill:#FFFFFF;}
</style>
<g>
	<path class="st0" d="M238.21,185.05c14.35,0,28.31-0.01,42.27,0c11.84,0.01,16.84,5,16.84,16.81c0,3.37,0.23,6.76-0.06,10.1
		c-0.31,3.45,0.5,4.56,4.34,4.49c18.37-0.37,34.8,11.43,40.09,28.97c5.09,16.87,0.75,31.45-11.9,43.62
		c-0.8,0.77-1.66,1.49-2.48,2.25c-0.06,0.05-0.01,0.23-0.01,0.44c1.09,0.67,2.34,0.21,3.52,0.32c2.43,0.21,3.68,1.61,3.64,3.9
		c-0.03,2.11-1.26,3.48-3.49,3.64c-1.12,0.08-2.24,0.05-3.37,0.05c-68.35,0-136.7,0-205.05-0.01c-2.93,0-6.68,0.71-6.73-3.74
		c-0.05-4.47,3.68-3.84,6.63-3.84c16.09-0.01,32.18-0.08,48.27,0.06c2.98,0.03,3.74-0.83,3.73-3.76c-0.1-30.81-0.1-61.62,0-92.42
		c0.01-2.76-0.68-3.65-3.53-3.59c-8.85,0.18-17.71,0.14-26.57,0.02c-2.3-0.03-3,0.66-2.97,2.96c0.12,8.98,0.05,17.96,0.04,26.94
		c0,2.32-0.31,4.61-2.53,5.88c-1.93,1.1-3.84,0.64-5.52-0.79c-3.23-2.75-6.58-5.37-9.66-8.27c-1.89-1.78-3.2-2.1-5.22-0.11
		c-2.75,2.71-5.89,5-8.78,7.56c-1.9,1.69-4,2.85-6.44,1.77c-2.47-1.09-2.91-3.44-2.89-5.98c0.06-8.86-0.07-17.71,0.08-26.57
		c0.04-2.57-0.62-3.46-3.3-3.4c-7.48,0.17-14.97,0.02-22.45,0.08c-5.43,0.04-7.72,2.3-7.73,7.81c-0.04,29.56,0,59.12-0.06,88.68
		c-0.01,2.41,0.66,3.22,3.16,3.18c9.48-0.14,18.96-0.03,28.44-0.07c2.77-0.01,5.18,0.41,5.15,3.85c-0.03,3.45-2.5,3.78-5.23,3.78
		c-23.2-0.03-46.4-0.03-69.6,0c-2.64,0-4.88-0.5-4.98-3.66c-0.1-3.09,1.88-3.98,4.66-3.97c8.98,0.04,17.96-0.12,26.94,0.09
		c3.07,0.07,3.96-0.71,3.95-3.87c-0.13-28.81-0.08-57.62-0.07-86.44c0-10.88,5.4-16.29,16.34-16.32
		c12.97-0.03,25.94-0.04,38.92,0.02c2.31,0.01,3.53-0.18,2.49-3.04c-0.66-1.81-0.64-3.93-0.64-5.91
		c-0.04-27.44-0.04-54.88-0.02-82.32c0.01-10.95,5.4-16.4,16.24-16.4c30.18-0.02,60.37-0.02,90.55,0
		c10.9,0.01,16.33,5.43,16.33,16.32c0.01,27.44-0.01,54.88,0.02,82.32C239.54,179.24,239.2,181.93,238.21,185.05z M178.57,185.47
		c15.46,0,30.92,0.03,46.38-0.02c5.56-0.02,7.97-2.31,7.97-7.56c0.03-28.3,0.03-56.6,0-84.9c-0.01-5.19-2.37-7.49-7.59-7.52
		c-7.48-0.04-14.96,0.1-22.44-0.07c-2.62-0.06-3.4,0.73-3.36,3.34c0.14,8.97,0.07,17.95,0.03,26.93c-0.01,2.26-0.06,4.64-2.65,5.68
		c-2.49,1-4.58,0.07-6.5-1.6c-3.19-2.79-6.52-5.42-9.65-8.27c-1.42-1.29-2.35-1.23-3.73,0.04c-2.94,2.69-6.07,5.17-9.09,7.77
		c-1.95,1.68-4.01,3.28-6.71,2.12c-2.85-1.23-3.11-3.89-3.1-6.63c0.03-8.73-0.06-17.45,0.06-26.18c0.03-2.37-0.55-3.24-3.08-3.18
		c-6.85,0.17-13.71,0.06-20.57,0.06c-7.89,0-10.11,2.23-10.11,10.23c-0.01,26.93-0.01,53.86,0,80.79c0,6.89,2.04,8.97,8.87,8.98
		C148.4,185.49,163.48,185.48,178.57,185.47z M277.15,292.04c-0.83-0.92-1.1-1.31-1.45-1.59c-24.61-19.46-19.45-60.16,11.89-71.65
		c1.77-0.65,2.19-1.6,2.17-3.31c-0.08-5.11,0.02-10.23-0.05-15.34c-0.07-5.18-2.66-7.7-7.94-7.74c-7.23-0.05-14.47,0.1-21.7-0.07
		c-2.61-0.06-3.4,0.68-3.36,3.33c0.16,8.98,0.04,17.96,0.07,26.94c0.01,2.43-0.68,4.52-2.98,5.59c-2.31,1.08-4.3,0.23-6.14-1.4
		c-3.18-2.81-6.53-5.42-9.65-8.28c-1.54-1.41-2.57-1.29-4.05,0.07c-2.85,2.61-5.91,4.98-8.81,7.54c-2.06,1.83-4.29,3.41-7.04,2.11
		c-2.59-1.22-2.82-3.86-2.81-6.46c0.03-8.73-0.06-17.46,0.05-26.19c0.03-2.36-0.58-3.27-3.11-3.23c-8.98,0.14-17.96,0.12-26.94,0.01
		c-2.28-0.03-3.02,0.65-3.01,2.96c0.06,31.31,0.05,62.62,0.01,93.92c0,2.02,0.52,2.84,2.73,2.84
		C215.46,292.02,245.89,292.04,277.15,292.04z M302.12,292.33c19.06-0.34,34.35-15.91,33.95-34.57
		c-0.4-18.83-16.06-33.89-34.98-33.64c-18.95,0.25-33.97,15.76-33.67,34.77C267.72,277.45,283.5,292.66,302.12,292.33z
		 M134.09,218.01c0-8.32-0.05-15.76,0.03-23.2c0.02-2.02-1.06-2.16-2.6-2.15c-6.98,0.03-13.96,0.09-20.94-0.03
		c-2.28-0.04-2.68,0.95-2.64,2.91c0.1,4.98-0.02,9.97,0.05,14.96c0.03,2.14-0.38,4.35,0.41,6.8c3.14-2.51,6.05-4.66,8.76-7.03
		c2.78-2.43,5.27-2.24,7.94,0.13C127.78,212.79,130.59,215.06,134.09,218.01z M165.53,110.69c3.54-2.99,6.36-5.25,9.04-7.67
		c2.71-2.45,5.24-2.38,7.93,0c2.75,2.43,5.6,4.74,9.1,7.69c0-8.35-0.01-15.76,0.01-23.18c0-1.6-1.02-1.78-2.24-1.78
		c-7.22,0-14.45,0.01-21.67-0.01c-1.25,0-2.19,0.2-2.18,1.79C165.55,94.95,165.53,102.37,165.53,110.69z M248.64,218
		c0-8.34-0.02-15.88,0.02-23.42c0.01-1.49-0.69-1.92-2.05-1.91c-7.1,0.03-14.21,0.02-21.31,0c-1.24,0-2.24,0.16-2.23,1.75
		c0.01,7.41,0.01,14.83,0.01,23.09c3.17-2.75,5.72-4.87,8.17-7.09c2.78-2.53,5.49-2.55,8.32-0.11
		C242.35,212.71,245.18,215.07,248.64,218z"/>
	<path class="st0" d="M362.91,300.05c-2.99,0-5.97,0.05-8.96-0.02c-2.47-0.06-4.1-1.31-4.08-3.87c0.02-2.58,1.73-3.76,4.17-3.79
		c5.97-0.05,11.94-0.06,17.92-0.01c2.4,0.02,4.16,1.03,4.22,3.7c0.06,2.85-1.7,3.95-4.31,3.98
		C368.88,300.08,365.9,300.05,362.91,300.05C362.91,300.06,362.91,300.06,362.91,300.05z"/>
	<path class="st0" d="M81.12,254.34c-2.49,0.68-4.27,3.74-6.09,1.13c-1.69-2.41,1.24-3.67,2.58-5.05c5.48-5.65,5.53-5.6,11.07,0.26
		c0.26,0.27,0.54,0.53,0.77,0.82c1.08,1.37,3.29,2.38,1.69,4.66c-0.88,1.26-1.82,0.99-4.99-1.3c-0.85,3.4-0.23,6.73-0.4,10.01
		c-0.07,1.37,0.05,2.74-0.03,4.11c-0.11,1.76,0.54,4.28-2.19,4.34c-2.67,0.06-2.38-2.36-2.4-4.2c-0.04-3.61-0.01-7.23-0.01-10.84
		C81.12,257.06,81.12,255.84,81.12,254.34z"/>
	<path class="st0" d="M102.66,254.44c-2.25,0.63-3.42,3.99-5.48,1.8c-2.16-2.3,0.58-3.73,1.94-5.11c6.07-6.2,5.35-6.64,11.54,0.14
		c1.15,1.26,4.11,2.27,2.29,4.69c-1.9,2.54-3.61-0.2-5.74-1.35c0,5.34,0.01,10.15,0,14.96c0,1.76,0.17,3.86-2.39,3.78
		c-2.25-0.07-2.15-2.01-2.15-3.66C102.66,264.71,102.66,259.73,102.66,254.44z"/>
	<path class="st0" d="M48.73,96.89c3.08,1.58,4.12-0.06,4.63-3.07c0.26-1.57,1.54-2.66,3.33-2.14c1.6,0.46,2.71,1.75,2.16,3.39
		c-1.03,3.05,0.06,4.24,3.03,4.65c1.61,0.22,2.76,1.46,2.35,3.21c-0.42,1.78-1.8,2.85-3.65,2.28c-2.89-0.88-3.99,0.19-4.39,3
		c-0.25,1.74-1.55,2.93-3.52,2.36c-1.83-0.52-2.71-1.94-2.03-3.76c1.04-2.81-0.12-3.76-2.75-4.13c-1.75-0.25-3.05-1.4-2.65-3.37
		C45.57,97.7,46.79,96.82,48.73,96.89z"/>
	<path class="st0" d="M237.41,316.71c-2.39-1.23-3.32,0.18-3.69,2.76c-0.26,1.83-1.41,3.01-3.38,2.63c-2-0.38-2.62-2.09-2.18-3.72
		c0.76-2.76-0.11-3.79-2.85-4.15c-1.64-0.21-3.12-1.37-2.62-3.4c0.51-2.06,2.17-2.82,4.07-2.18c2.65,0.9,3.52-0.18,3.85-2.61
		c0.27-1.98,1.45-3.29,3.62-2.72c1.85,0.49,2.59,1.95,2.01,3.78c-0.76,2.43-0.26,3.66,2.53,3.96c1.78,0.19,3.44,1.33,2.87,3.57
		C241.18,316.47,239.7,317.14,237.41,316.71z"/>
	<path class="st0" d="M364.46,237.77c-0.12,1.85-1.18,2.83-2.82,3.02c-2.3,0.26-3.25,1.02-2.43,3.56c0.62,1.94-0.08,3.85-2.39,4.26
		c-2.2,0.39-3.17-1.11-3.35-3.07c-0.18-1.97-1.13-2.47-2.99-2.14c-2.03,0.36-4.24,0.44-4.69-2.26c-0.46-2.76,1.8-2.79,3.64-3.04
		c1.69-0.23,2.29-0.98,1.91-2.77c-0.4-1.9-1.02-4.29,1.75-4.91c2.68-0.6,3.33,1.47,3.61,3.6c0.3,2.29,1.69,1.88,3.25,1.46
		C362.1,234.89,363.91,235.22,364.46,237.77z"/>
	<path class="st0" d="M335.49,110.65c-0.28-2.2-0.36-4.06,2.01-4.42c2.19-0.33,3.13,1.04,3.34,3.06c0.21,2.05,1.15,2.81,3.23,2.09
		c1.95-0.67,3.93-0.59,4.51,1.78c0.6,2.43-1.25,3.35-3.23,3.59c-1.96,0.24-2.55,0.91-1.95,2.89c0.63,2.08,0.33,4.17-2.18,4.72
		c-2.42,0.53-3.34-1.16-3.52-3.26c-0.2-2.21-1.58-2.11-3.19-1.87c-1.94,0.29-4.04,0.3-4.39-2.16c-0.32-2.25,1.56-2.97,3.37-3.12
		C336.27,113.75,335.83,112.05,335.49,110.65z"/>
	<path class="st0" d="M94.13,281.64c-4.85,0-9.71,0-14.56,0c-1.55,0-3.19-0.01-3.17-2.16c0.01-1.98,1.42-2.38,3.09-2.37
		c9.95,0.01,19.91,0.01,29.86,0c1.66,0,3.12,0.4,3.03,2.4c-0.08,1.74-1.45,2.13-2.94,2.13C104.34,281.64,99.23,281.63,94.13,281.64z
		"/>
	<path class="st0" d="M160.45,147.13c-1.22,1.04-1.69,1.41-2.14,1.82c-1.24,1.13-2.62,1.68-3.89,0.26
		c-1.19-1.33-0.25-2.47,0.68-3.58c6.88-8.29,6.89-8.31,13.52-1.21c1.18,1.27,3.47,2.45,1.94,4.6c-1.88,2.63-3.31-0.52-5.5-0.97
		c0,4.96,0.03,9.75-0.01,14.53c-0.01,1.7,0.23,3.91-2.33,3.81c-2.43-0.1-2.24-2.24-2.25-3.97
		C160.44,157.6,160.45,152.79,160.45,147.13z"/>
	<path class="st0" d="M138.64,147.46c-2.25,0.83-3.42,4.11-5.5,1.82c-2.06-2.26,0.64-3.75,1.9-5.24c5.37-6.36,5.16-6.81,11.37-0.07
		c0.17,0.18,0.36,0.35,0.51,0.55c1.05,1.39,3.45,2.53,1.71,4.63c-1.87,2.25-3.21-0.33-5.42-1.38c0,4.3,0,8.3,0,12.29
		c0,1.25,0,2.49-0.02,3.74c-0.02,1.38-0.5,2.55-2.04,2.63c-1.72,0.09-2.45-1.06-2.47-2.63c-0.05-4.24-0.03-8.47-0.03-12.71
		C138.64,150,138.64,148.89,138.64,147.46z"/>
	<path class="st0" d="M151.61,174.66c-4.74,0-9.48,0-14.22,0c-1.69,0-3.51-0.06-3.44-2.35c0.06-1.96,1.68-2.2,3.28-2.2
		c9.73,0.01,19.46,0,29.18,0c1.64,0,3.16,0.34,3.06,2.37c-0.1,1.99-1.68,2.19-3.28,2.18C161.34,174.65,156.47,174.66,151.61,174.66z
		"/>
	<path class="st0" d="M196.19,254.78c-1.43-0.1-1.7,0.92-2.31,1.46c-1.33,1.19-2.55,0.76-3.64-0.26c-1.13-1.06-0.93-2.25,0.07-3.29
		c1.91-1.97,3.82-3.94,5.82-5.82c1.49-1.4,2.99-0.92,4.28,0.37c1.67,1.68,3.26,3.44,4.89,5.15c1.07,1.12,2.23,2.28,0.75,3.81
		c-1.5,1.56-2.67,0.36-3.83-0.65c-0.27-0.23-0.59-0.4-1.49-1.01c0,5.2,0.01,9.96-0.01,14.72c-0.01,1.71,0.33,3.94-2.13,4.04
		c-2.84,0.12-2.38-2.31-2.39-4.11C196.17,264.41,196.19,259.6,196.19,254.78z"/>
	<path class="st0" d="M216.91,254.13c-0.75,0.66-1.35,1.32-2.06,1.78c-1.02,0.66-2.11,0.78-3.02-0.25c-0.81-0.92-0.62-1.92,0.12-2.7
		c2.06-2.17,4.16-4.29,6.33-6.35c0.78-0.74,1.97-0.81,2.8-0.18c2.69,2.04,4.9,4.59,6.95,7.24c0.63,0.82,0.01,1.7-0.63,2.32
		c-0.54,0.52-1.26,0.91-2.03,0.43c-0.83-0.52-1.61-1.14-3.11-2.22c0,4.48,0,8.47,0,12.47c0,1.12,0.02,2.24-0.02,3.37
		c-0.05,1.66-0.66,3.13-2.53,3.03c-1.66-0.09-2.06-1.56-2.06-3.06c-0.01-4.49,0-8.98-0.03-13.46
		C217.63,255.83,217.84,255.04,216.91,254.13z"/>
	<path class="st0" d="M209.42,277.1c4.72,0,9.44,0,14.16,0c1.72,0,3.47,0.14,3.36,2.41c-0.09,1.98-1.73,2.13-3.3,2.13
		c-9.69,0-19.37-0.01-29.06,0.01c-1.66,0-3.19-0.4-3.22-2.26c-0.03-1.87,1.49-2.31,3.16-2.3
		C199.49,277.12,204.45,277.1,209.42,277.1z"/>
	<path class="st0" d="M323.67,246.82c0.12,1.26-0.81,2.4-1.89,3.49c-7.22,7.21-14.4,14.46-21.66,21.63
		c-2.85,2.82-4.93,2.82-7.71,0.13c-3.4-3.29-6.72-6.65-10.03-10.02c-2.09-2.13-2.84-4.64-0.5-6.88c2.32-2.22,4.57-0.96,6.47,1.04
		c0.09,0.09,0.17,0.18,0.27,0.26c2.52,2.16,4.43,6.46,7.35,6.24c2.51-0.19,4.78-3.94,7.09-6.19c4.29-4.16,8.52-8.38,12.79-12.54
		c1.52-1.48,3.27-2.27,5.41-1.42C323,243.25,323.58,244.68,323.67,246.82z"/>
</g>
</svg>
