<svg width="48" height="16" viewBox="0 0 48 16" fill="none" xmlns="http://www.w3.org/2000/svg">
<path fill-rule="evenodd" clip-rule="evenodd" d="M2.02848 0.000199915C1.76345 -0.00354723 1.50033 0.0454159 1.25439 0.144244C1.00846 0.243072 0.784617 0.389794 0.595878 0.575883C0.40714 0.761971 0.257268 0.983716 0.154973 1.22823C0.0526781 1.47274 0 1.73515 0 2.0002C0 2.26525 0.0526781 2.52766 0.154973 2.77217C0.257268 3.01668 0.40714 3.23843 0.595878 3.42452C0.784617 3.61061 1.00846 3.75733 1.25439 3.85616C1.50033 3.95498 1.76345 4.00395 2.02848 4.0002H36.0285C36.2935 4.00395 36.5566 3.95498 36.8026 3.85616C37.0485 3.75733 37.2723 3.61061 37.4611 3.42452C37.6498 3.23843 37.7997 3.01668 37.902 2.77217C38.0043 2.52766 38.057 2.26525 38.057 2.0002C38.057 1.73515 38.0043 1.47274 37.902 1.22823C37.7997 0.983716 37.6498 0.761971 37.4611 0.575883C37.2723 0.389794 37.0485 0.243072 36.8026 0.144244C36.5566 0.0454159 36.2935 -0.00354723 36.0285 0.000199915H2.02848Z" fill="white"/>
<path fill-rule="evenodd" clip-rule="evenodd" d="M11.0285 12.0002C10.7635 11.9965 10.5003 12.0454 10.2544 12.1442C10.0085 12.2431 9.78462 12.3898 9.59588 12.5759C9.40714 12.762 9.25727 12.9837 9.15497 13.2282C9.05268 13.4727 9 13.7352 9 14.0002C9 14.2652 9.05268 14.5277 9.15497 14.7722C9.25727 15.0167 9.40714 15.2384 9.59588 15.4245C9.78462 15.6106 10.0085 15.7573 10.2544 15.8562C10.5003 15.955 10.7635 16.0039 11.0285 16.0002H45.0285C45.2935 16.0039 45.5566 15.955 45.8026 15.8562C46.0485 15.7573 46.2723 15.6106 46.4611 15.4245C46.6498 15.2384 46.7997 15.0167 46.902 14.7722C47.0043 14.5277 47.057 14.2652 47.057 14.0002C47.057 13.7352 47.0043 13.4727 46.902 13.2282C46.7997 12.9837 46.6498 12.762 46.4611 12.5759C46.2723 12.3898 46.0485 12.2431 45.8026 12.1442C45.5566 12.0454 45.2935 11.9965 45.0285 12.0002H11.0285Z" fill="white"/>
</svg>
